# xmcd CD Database Entry
#
# Track frame offsets:
# 150
# 16987
# 39799
# 63836
# 82940
# 100125
# 118292
# 139301
# 158418
#
# Disc length: 2353 seconds
#
# Revision: 1
# Processed by: cddbd v1.4PL0 Copyright (c) Steve Scherf et al.
# Submitted via: tcd 2.0b
#
DISCID=64092f09
DTITLE=Nick Cave and the Bad Seeds - The best of Nick Cave and the Bad S
DTITLE=eeds -- CD 2
DYEAR=1900
DGENRE=
TTITLE0=Lime tree arbour
TTITLE1=Stranger than kindness
TTITLE2=Red right hand
TTITLE3=I let love in
TTITLE4=Brompton oratory
TTITLE5=Henry Lee
TTITLE6=The weeping song
TTITLE7=The ship song
TTITLE8=Where the wild roses grow
EXTD=
EXTT0=
EXTT1=
EXTT2=
EXTT3=
EXTT4=
EXTT5=
EXTT6=
EXTT7=
EXTT8=
PLAYORDER=
